<svg xmlns="http://www.w3.org/2000/svg" version="1.1" xlink="http://www.w3.org/1999/xlink" xmlns:svgjs="http://svgjs.com/svgjs" width="100%" height="100%" viewBox="1 1 46 46">
<!-- <rect width="100%" height="100%" fill="white"/> -->
<circle cx="50%" cy="50%" r="50%" stroke-width="1" fill="white" /> 
<g fill="#7f18a5"><path d="M24 47A23 23 0 1 0 1 24a23 23 0 0 0 23 23zm0-44A21 21 0 1 1 3 24 21 21 0 0 1 24 3zm-9 27a1 1 0 0 0 1 1h8v1.5a4.5 4.5 0 0 0 9 0V30a1 1 0 0 0-1-1H16a1 1 0 0 0-1 1zm11 1h5v1.5a2.5 2.5 0 0 1-5 0zm-11.6-9.8l2.93-2.2-2.93-2.2a1 1 0 0 1 1.2-1.6l4 3a1 1 0 0 1 0 1.6l-4 3a1 1 0 0 1-.6.2 1 1 0 0 1-.8-.4 1 1 0 0 1 .2-1.4zM29 19a2 2 0 1 1 2 2 2 2 0 0 1-2-2z"></path></g></svg>