<svg xmlns="http://www.w3.org/2000/svg" version="1.1" xlink="http://www.w3.org/1999/xlink" xmlns:svgjs="http://svgjs.com/svgjs" width="100%" height="100%" viewBox="0.6500000357627869 -29.18000030517578 403.3399963378906 29.739999771118164"><g fill="#3b3b3b"><path d="M9.4 -4.83C9.4 -4.11 8.98 -3.71 8.15 -3.62L5.86 -3.49L5.86 0L18.02 0L18.02 -3.66L14.61 -3.79L14.61 -24.4L17.54 -24.4C18.09 -24.4 18.43 -24.29 18.58 -24.09C18.72 -23.89 18.79 -23.55 18.79 -23.06L18.79 -21.03L23.19 -21.34L23.19 -28.66L0.65 -28.66L0.65 -21.34L5.04 -21.03L5.04 -23.06C5.04 -23.95 5.37 -24.4 6.03 -24.4L9.4 -24.4Z M66.07 -25.17L66.07 -28.66L56.38 -28.66L56.38 -25L58.7 -24.83L55.04 -6.81L54.95 -6.81L50.3 -26.38L44.74 -26.38L40.26 -6.9L40.08 -6.9L36.33 -23.53C36.31 -23.68 36.29 -23.81 36.29 -23.92C36.29 -24.58 36.74 -24.96 37.63 -25.04L39.05 -25.17L39.05 -28.66L28.36 -28.66L28.36 -25L30.82 -24.87L36.77 0L42.84 0L47.24 -19.18L47.37 -19.18L51.89 0L57.8 0L63.23 -23.49C63.43 -24.47 63.9 -24.98 64.65 -25.04Z M74.65 -5.04C74.65 -4.53 74.55 -4.17 74.35 -3.99C74.15 -3.8 73.83 -3.68 73.4 -3.62L71.98 -3.49L71.98 0L82.41 0L82.41 -3.66L79.95 -3.79L79.95 -23.66C79.95 -24.5 80.37 -24.96 81.2 -25.04L82.63 -25.17L82.63 -28.66L72.19 -28.66L72.19 -25L74.65 -24.87Z M97.54 -4.83C97.54 -4.11 97.12 -3.71 96.29 -3.62L94 -3.49L94 0L106.16 0L106.16 -3.66L102.75 -3.79L102.75 -24.4L105.68 -24.4C106.23 -24.4 106.58 -24.29 106.72 -24.09C106.86 -23.89 106.93 -23.55 106.93 -23.06L106.93 -21.03L111.33 -21.34L111.33 -28.66L88.79 -28.66L88.79 -21.34L93.19 -21.03L93.19 -23.06C93.19 -23.95 93.52 -24.4 94.18 -24.4L97.54 -24.4Z M135.08 -24.09C135.19 -23.89 135.25 -23.58 135.25 -23.15L135.25 -19.78L139.65 -20.09L139.65 -27.41C137.12 -28.59 134.42 -29.18 131.55 -29.18C127.98 -29.18 124.91 -28.1 122.32 -25.95C121 -24.83 119.95 -23.26 119.18 -21.25C118.4 -19.24 118.01 -16.88 118.01 -14.18C118.01 -9.3 119.17 -5.62 121.48 -3.15C123.79 -0.68 127.15 0.56 131.55 0.56C134.99 0.56 137.84 -0.03 140.08 -1.21L140.08 -8.66L135.68 -8.97L135.68 -5.52C135.68 -5.09 135.63 -4.77 135.51 -4.57C135.4 -4.37 135.04 -4.17 134.43 -3.99C133.83 -3.8 133.19 -3.71 132.52 -3.71L131.37 -3.71C126.06 -3.71 123.4 -7.26 123.4 -14.35C123.4 -17.77 124.09 -20.39 125.47 -22.2C126.85 -24.01 128.87 -24.91 131.55 -24.91C133.59 -24.91 134.76 -24.64 135.08 -24.09Z M168.05 -5.04C168.05 -4.53 167.95 -4.17 167.75 -3.99C167.55 -3.8 167.23 -3.68 166.8 -3.62L165.38 -3.49L165.38 0L175.81 0L175.81 -3.66L173.35 -3.79L173.35 -23.66C173.35 -24.5 173.77 -24.96 174.6 -25.04L176.03 -25.17L176.03 -28.66L165.6 -28.66L165.6 -25L168.05 -24.87L168.05 -16.94L155.85 -16.94L155.85 -23.62C155.85 -24.14 155.96 -24.49 156.16 -24.68C156.36 -24.86 156.69 -24.98 157.15 -25.04L158.57 -25.17L158.57 -28.66L148.14 -28.66L148.14 -25L150.6 -24.87L150.6 -4.83C150.6 -4.11 150.18 -3.71 149.35 -3.62L147.92 -3.49L147.92 0L158.35 0L158.35 -3.66L155.85 -3.79L155.85 -12.5L168.05 -12.5Z M191.11 -4.83C191.11 -4.08 190.69 -3.68 189.86 -3.62L187.58 -3.49L187.58 0L199.73 0L199.73 -3.66L196.37 -3.79L196.37 -10.95L203.14 -23.75C203.57 -24.55 204.06 -24.98 204.6 -25.04L205.9 -25.17L205.9 -28.66L196.63 -28.66L196.63 -25L198.78 -24.83L194.09 -15.86L193.91 -15.86L190.25 -23.36C190.02 -23.82 189.97 -24.21 190.1 -24.52C190.23 -24.84 190.52 -25.01 190.98 -25.04L192.28 -25.17L192.28 -28.66L181.76 -28.66L181.76 -25L183.78 -24.87L191.11 -10.95Z M232.75 -4.83C232.75 -4.11 232.33 -3.71 231.5 -3.62L229.21 -3.49L229.21 0L241.37 0L241.37 -3.66L237.96 -3.79L237.96 -24.4L240.89 -24.4C241.44 -24.4 241.78 -24.29 241.93 -24.09C242.07 -23.89 242.14 -23.55 242.14 -23.06L242.14 -21.03L246.54 -21.34L246.54 -28.66L224 -28.66L224 -21.34L228.39 -21.03L228.39 -23.06C228.39 -23.95 228.72 -24.4 229.39 -24.4L232.75 -24.4Z M273.65 -25.56C271.35 -27.97 268.5 -29.18 265.09 -29.18C261.69 -29.18 258.71 -28.07 256.15 -25.86C254.89 -24.77 253.87 -23.22 253.09 -21.23C252.32 -19.23 251.93 -16.91 251.93 -14.27C251.93 -9.44 253.03 -5.76 255.25 -3.23C257.46 -0.7 260.51 0.56 264.41 0.56C268.3 0.56 271.39 -0.71 273.67 -3.25C275.96 -5.8 277.1 -9.55 277.1 -14.5C277.1 -19.46 275.95 -23.15 273.65 -25.56ZM257.32 -14.48C257.32 -16.32 257.53 -17.97 257.96 -19.44C258.39 -20.9 259.18 -22.15 260.31 -23.19C261.45 -24.22 262.8 -24.74 264.38 -24.74C265.96 -24.74 267.25 -24.41 268.24 -23.75C269.23 -23.09 269.97 -22.18 270.46 -21.03C271.32 -18.94 271.75 -16.64 271.75 -14.14C271.75 -11.35 271.27 -8.99 270.29 -7.07C269.23 -4.88 267.37 -3.79 264.73 -3.79C259.79 -3.79 257.32 -7.36 257.32 -14.48Z M284.51 0L295.07 0L295.07 -3.66L292.27 -3.79L292.27 -20.09L292.36 -20.09L304.81 0L309.86 0L309.86 -23.71C309.86 -24.54 310.2 -24.98 310.89 -25.04L312.44 -25.17L312.44 -28.66L301.93 -28.66L301.93 -25L304.77 -24.87L304.77 -8.88L304.68 -8.88L292.49 -28.66L284.73 -28.66L284.73 -25L287.18 -24.87L287.18 -4.83C287.18 -4.08 286.81 -3.68 286.06 -3.62L284.51 -3.49Z M342.14 -10.04C342.14 -10.56 342.23 -10.91 342.42 -11.1C342.61 -11.29 342.93 -11.41 343.39 -11.46L344.38 -11.55L344.38 -15L333.65 -15L333.65 -11.34L336.97 -11.21L337.01 -11.21L337.01 -4.78C335.95 -4.09 334.42 -3.75 332.44 -3.75C327.44 -3.75 324.94 -7.37 324.94 -14.61C324.94 -21.48 327.71 -24.91 333.26 -24.91C335.56 -24.91 336.87 -24.64 337.18 -24.09C337.3 -23.89 337.35 -23.58 337.35 -23.15L337.35 -19.78L341.75 -20.09L341.75 -27.41C339.22 -28.59 336.5 -29.18 333.58 -29.18C330.67 -29.18 328.06 -28.5 325.76 -27.15C324.55 -26.41 323.5 -25.47 322.59 -24.35C321.69 -23.23 320.95 -21.81 320.39 -20.09C319.83 -18.36 319.55 -16.42 319.55 -14.27C319.55 -9.38 320.67 -5.7 322.89 -3.21C325.12 -0.73 328.22 0.52 332.18 0.52C336.15 0.52 339.47 -0.4 342.14 -2.24Z M358 -23.62C358 -24.14 358.1 -24.49 358.3 -24.68C358.5 -24.86 358.83 -24.98 359.29 -25.04L360.72 -25.17L360.72 -28.66L350.28 -28.66L350.28 -25L352.78 -24.87L352.78 -9.05C352.78 -5.72 353.67 -3.28 355.44 -1.75C357.2 -0.21 359.81 0.56 363.26 0.56C366.71 0.56 369.41 -0.23 371.36 -1.81C373.32 -3.39 374.29 -5.57 374.29 -8.36L374.29 -23.75C374.29 -24.52 374.71 -24.96 375.54 -25.04L376.96 -25.17L376.96 -28.66L366.75 -28.66L366.75 -25L369.25 -24.87L369.25 -9.09C369.25 -7.37 368.75 -6.06 367.76 -5.17C366.77 -4.28 365.38 -3.84 363.58 -3.84C361.79 -3.84 360.41 -4.25 359.44 -5.06C358.48 -5.88 358 -7.3 358 -9.31Z M403.99 0L403.99 -7.67L399.59 -7.97L399.59 -5.82C399.59 -5.33 399.52 -4.98 399.38 -4.76C399.23 -4.55 398.9 -4.44 398.39 -4.44L391.45 -4.44L391.45 -12.5L401.4 -12.5L401.4 -16.9L391.45 -16.9L391.45 -24.27L397.83 -24.27C398.37 -24.27 398.72 -24.17 398.86 -23.96C399 -23.76 399.08 -23.42 399.08 -22.93L399.08 -21.21L403.47 -21.51L403.47 -28.66L383.73 -28.66L383.73 -25L386.19 -24.87L386.19 -4.83C386.19 -4.11 385.77 -3.71 384.94 -3.62L383.52 -3.49L383.52 0Z"></path></g></svg>